<svg xmlns="http://www.w3.org/2000/svg" viewBox="0 0 61.529 17.58" version="1.1">
  <path d="M11.944 16.362a6.931 6.931 0 01-1.607-.303c-1.872-.58-3.31-1.918-3.944-3.673a4.589 4.589 0 01-.215-.768 4.577 4.577 0 01-.113-.815c-.016-.224-.03-.41-.033-.412-.003-.003-.304.239-.671.537a255.988 255.988 0 01-2.67 2.154c-.61.481-.705.54-.96.601a1.66 1.66 0 01-.589.02c-.465-.108-.818-.533-.816-.983.002-.4.242-.805.728-1.228A373.15 373.15 0 014.46 8.86a462.517 462.517 0 003.242-2.501c.004-.01-.753-.012-1.952-.005-2.188.012-2.098.016-2.345-.109a.762.762 0 01-.353-.365 1.023 1.023 0 01-.001-.583c.156-.41.558-.66 1.24-.77.16-.027.528-.03 3.8-.04l3.624-.01-1.145-.924a37.74 37.74 0 01-1.24-1.027c-.24-.26-.31-.539-.195-.77.051-.102.101-.16.236-.274.18-.151.35-.235.561-.275.302-.057.701.068 1.125.352.383.256 4.603 3.492 5.445 4.175 1.203.975 1.81 1.725 2.164 2.674.263.706.356 1.437.298 2.341a5.414 5.414 0 01-.31 1.563c-.81 2.315-3.002 3.887-5.648 4.052-.482.03-.566.03-1.062-.002zm1.254-2.835c1.733-.35 3.108-1.77 3.236-3.345.141-1.738-1.279-3.401-3.237-3.79-.267-.054-.294-.056-.711-.056-.422 0-.442.002-.706.056-1.55.32-2.796 1.43-3.15 2.806-.233.91-.008 1.921.607 2.733a4.319 4.319 0 002.511 1.589c.308.063.462.075.86.067.28-.006.37-.015.59-.06zm-.843-1.353c-1.057-.11-2.009-.919-2.24-1.903a2.272 2.272 0 010-.865c.215-.899 1.022-1.63 2.032-1.842.204-.043.692-.043.911 0 .436.085.844.279 1.215.576.324.26.563.578.715.954a1.9 1.9 0 01.141.911c-.074.878-.757 1.694-1.705 2.038a2.65 2.65 0 01-1.069.131zM23.4 13.26a2.468 2.468 0 01-1.44-.615l-.139-.122-.005.276-.005.277h-1.526V9.64c0-1.89.007-3.436.015-3.436.023 0 1.48.381 1.497.392.009.006.015.418.015.945 0 .515.006.937.013.937.007 0 .023-.015.034-.033a.744.744 0 01.121-.11c.462-.356 1.505-.554 2.34-.445.445.058.88.237 1.24.51.74.56 1.087 1.608.893 2.698-.115.643-.425 1.22-.853 1.587-.17.147-.514.35-.708.422-.396.144-.98.204-1.492.153zm.417-1.257c.187-.052.268-.085.39-.16.157-.094.202-.138.357-.345.183-.245.275-.48.31-.792a1.25 1.25 0 00-.009-.427 1.46 1.46 0 00-.259-.68.997.997 0 00-.367-.33c-.41-.225-.993-.26-1.5-.089-.357.12-.541.28-.711.62-.111.22-.173.456-.188.717a1.04 1.04 0 00.043.433c.05.21.065.242.192.454.09.15.166.255.223.306.15.135.438.263.686.306l.147.026c.111.02.567-.007.685-.04zm20.337 1.27a3.534 3.534 0 01-.807-.164 2.706 2.706 0 01-.694-.409c-1.115-.946-1.246-2.97-.262-4.045a2.58 2.58 0 01.874-.592c.428-.17.833-.227 1.384-.193.733.044 1.357.237 1.661.512a.89.89 0 00.116.095c.006 0 .01-.425.01-.945s.005-.946.01-.946c.006 0 .34-.086.743-.19.403-.106.74-.192.75-.192.01 0 .014 1.364.01 3.436l-.003 3.436h-1.51v-.278a2.15 2.15 0 00-.009-.277c-.005 0-.073.055-.152.123-.43.373-.881.563-1.461.615-.244.022-.5.027-.66.013zm.99-1.239c.166-.024.3-.06.456-.121.261-.104.39-.222.569-.524a1.17 1.17 0 00.183-.434c.048-.197.052-.229.042-.43-.017-.369-.142-.728-.34-.978a.861.861 0 00-.315-.26c-.32-.176-.822-.257-1.202-.195-.568.094-.9.35-1.08.834a1.682 1.682 0 00-.002 1.176c.119.322.357.622.606.765.108.061.361.145.5.165.156.022.436.023.582.002zm-13.475 1.187a4.069 4.069 0 01-1.154-.279c-.86-.368-1.392-1.016-1.55-1.888-.135-.74.024-1.556.419-2.142.281-.419.795-.794 1.365-.996.851-.301 1.924-.264 2.777.097a2.2 2.2 0 01.854.61c.305.337.508.722.597 1.13.048.218.093.676.093.95v.187h-4.338v.067c0 .102.047.353.087.459a.795.795 0 00.283.369c.362.286.665.373 1.105.318.47-.058.852-.287 1.047-.628a.33.33 0 01.057-.082c.012 0 1.24.694 1.263.713.039.034-.273.38-.47.522-.403.289-.885.472-1.472.56a7.26 7.26 0 01-.963.034zm1.63-3.481c0-.188-.127-.468-.285-.63-.12-.123-.275-.209-.507-.28-.14-.042-.179-.047-.448-.048-.338-.002-.433.017-.66.129-.207.101-.372.279-.51.55a1.19 1.19 0 00-.105.33c0 .018.242.023 1.258.023H33.3V9.74zm17.874 3.481a3.753 3.753 0 01-1.525-.468 2.375 2.375 0 01-1.092-1.36c-.263-.8-.12-1.829.347-2.502.36-.519 1.051-.943 1.784-1.096 1.044-.218 2.281.023 2.945.572.154.128.427.446.549.64.264.42.391.954.393 1.653v.23h-4.342l.012.125c.031.323.107.525.248.666.264.265.65.44.965.44.576 0 1.072-.243 1.297-.636a.404.404 0 01.063-.092c.022 0 1.271.716 1.271.729 0 .026-.221.287-.321.379-.367.335-.982.594-1.635.689a7.586 7.586 0 01-.959.031zm1.631-3.481c0-.193-.126-.47-.286-.63a1.166 1.166 0 00-.504-.279c-.142-.044-.18-.048-.45-.049-.332 0-.428.017-.648.12-.152.073-.302.21-.418.384a1.397 1.397 0 00-.2.454l-.01.074h2.516V9.74zm-25.751.117V6.638h1.458v6.438h-1.458zm8.438.829l.004-2.39.776-.006.777-.005v.209c0 .118.007.208.016.208a.4.4 0 00.091-.096c.22-.282.725-.582 1.21-.72.308-.086.547-.103.931-.067.59.057 1.07.24 1.426.544.146.125.193.179.286.327.1.158.116.196.15.355.037.178.037.194.037 2.104v1.926h-1.507l-.008-1.592c-.007-1.54-.01-1.597-.044-1.742-.073-.304-.218-.51-.44-.622a.73.73 0 00-.312-.089c-.408-.047-.852.051-1.163.258a.989.989 0 00-.301.285 1.151 1.151 0 00-.22.41c-.084.228-.09.25-.12.567-.027.28-.032.498-.032 1.427v1.098h-1.562zm19.5.013V8.32h1.475v.174c0 .095.007.173.015.173a.411.411 0 00.09-.1c.118-.157.36-.398.502-.498.163-.115.331-.2.52-.262.14-.046.167-.048.543-.055l.395-.007v1.343l-.161-.008a3.577 3.577 0 00-.737.046 2.098 2.098 0 00-.597.29c-.248.188-.408.453-.487.807-.038.168-.039.202-.045 1.512l-.006 1.34H54.99zm4.355-3.202v-.53h-.382v-.173h.955v.174h-.381v1.058h-.192zm.712-.087v-.616h.239l.162.486c.09.266.167.48.173.472.006-.007.084-.225.172-.485l.16-.473h.239v1.234l-.091-.005-.091-.005-.006-.425-.006-.425-.143.425-.143.425h-.184l-.144-.422a8.716 8.716 0 00-.154-.432 4.176 4.176 0 00-.01.426v.437h-.174z" fill="#000"/>
</svg>
