<svg xmlns="http://www.w3.org/2000/svg" viewBox="0 0 61.529 17.58" version="1.1" xml:space="preserve">
  <path d="M22.328 13.37c0-.007.17-.402.378-.879.207-.477.377-.876.377-.888 0-.011-.403-.96-.895-2.109a876.702 876.702 0 01-.91-2.125c-.013-.034.012-.036.428-.03l.442.005.579 1.382c.413.986.609 1.48.683 1.725.058.188.112.36.12.38.01.026.055-.08.146-.345.072-.211.395-1.005.717-1.763l.585-1.379.753-.005.753-.005V6.295h.873v1.04h.81v.644h-.81v1.387c0 1.55-.006 1.485.145 1.573.062.036.119.043.369.05l.296.008v.728l-.441-.012c-.475-.012-.615-.035-.82-.132-.202-.095-.324-.254-.392-.511-.024-.088-.03-.39-.03-1.598V7.984l-.296-.015a6.33 6.33 0 00-.46-.007l-.164.007-1.22 2.702-1.219 2.7-.398.007c-.22.003-.399 0-.399-.006zm-10.43-5.095c0-3.258.004-4.082.025-4.074l.81.235.785.225v7.301l-.743.181-.81.198-.068.018zM6.722 9.993c0-1.166.005-2.12.011-2.12.01 0 1.345.333 1.511.377l.078.02-.005 1.759-.005 1.758-.79.162-.794.163c-.003 0-.005-.953-.005-2.119zM4.167 8.28c0-2.052.002-3.73.005-3.73l.816.235.81.236.005 3.242c.004 2.578 0 3.246-.02 3.262a15.83 15.83 0 01-.806.244c-.428.123-.786.228-.795.233-.009.005-.015-1.67-.015-3.722zm26.26 3.407c-.945-.155-1.635-.826-1.813-1.76a3.447 3.447 0 010-.923c.16-.918.792-1.575 1.68-1.744.175-.033.64-.044.818-.02.332.047.708.197.96.383.553.41.87 1.055.91 1.855l.012.245h-3.66l.01.078c.088.605.472 1.026 1.078 1.18.195.05.63.052.825.003.313-.077.627-.257.873-.501.076-.075.143-.137.149-.137.023 0 .532.422.532.441 0 .037-.348.365-.503.474-.282.2-.604.34-.931.405a3.606 3.606 0 01-.94.021zm1.7-2.665a1.393 1.393 0 00-.467-.81 1.484 1.484 0 00-1.675-.1 1.5 1.5 0 00-.45.435c-.08.124-.183.406-.183.502v.05h2.788zm18.394 2.664a2.732 2.732 0 01-.369-.091 1.89 1.89 0 01-.79-.472 2.098 2.098 0 01-.656-1.236 2.904 2.904 0 01.041-1.047 2.147 2.147 0 011.335-1.477c.5-.189 1.252-.182 1.748.014.235.093.64.35.623.395a5.656 5.656 0 01-.243.287l-.238.27-.08-.074a1.408 1.408 0 00-1.139-.342 1.278 1.278 0 00-.767.348 1.542 1.542 0 00-.459.885 2.54 2.54 0 00.041.844c.146.503.5.864.978.992.183.05.584.05.769.002.215-.056.424-.17.563-.305l.123-.12.25.278c.141.156.245.288.237.3-.035.057-.366.28-.537.363-.403.195-.932.263-1.43.186zm4.295.01a2.585 2.585 0 01-1.042-.405c-.749-.535-1.067-1.523-.806-2.505a2.087 2.087 0 011.24-1.41c.521-.205 1.274-.202 1.794.008.488.197.926.63 1.142 1.13.134.307.218.716.218 1.058v.15h-3.699v.069c0 .103.078.363.151.503.097.186.359.437.566.544a1.74 1.74 0 001 .177c.433-.05.773-.216 1.123-.55.116-.11.133-.12.168-.095.124.089.504.401.504.414 0 .026-.295.313-.42.409a2.47 2.47 0 01-1.004.465 3.86 3.86 0 01-.935.038zm1.658-2.737c-.159-.699-.823-1.141-1.57-1.045a1.57 1.57 0 00-.593.192 1.64 1.64 0 00-.506.526c-.07.134-.142.354-.142.434 0 .03.13.034 1.421.034h1.422zM41.07 11.615a2.156 2.156 0 01-1.527-1.267c-.224-.535-.224-1.28.002-1.844A1.976 1.976 0 0140.9 7.32a2.1 2.1 0 01.508-.064c.356-.013.543.01.805.103.302.106.463.208.722.46l.172.168v-.654h.727L43.83 9.47l-.005 2.135-.38.006-.378.006v-.689l-.112.131a1.721 1.721 0 01-.989.566c-.235.044-.665.04-.894-.008zm.964-.665a1.438 1.438 0 001.013-1.034c.035-.128.044-.223.044-.453s-.01-.325-.044-.452c-.108-.404-.387-.758-.73-.926a1.308 1.308 0 00-.686-.154c-.387.002-.67.098-.935.318a1.48 1.48 0 00-.488.83c-.04.187-.04.552-.001.755.106.554.535 1.012 1.055 1.125.203.044.581.04.772-.01zm-25.447.652a165.57 165.57 0 01-.016-3.121V5.376l1.003.01c1.053.011 1.246.025 1.616.118.496.125.96.487 1.164.909.137.283.184.678.113.95-.079.302-.315.61-.618.808l-.164.106.134.045c.593.2 1.006.607 1.137 1.122.052.202.057.585.01.768-.173.668-.823 1.187-1.694 1.351-.172.033-.354.039-1.434.046-.68.004-1.243 0-1.252-.007zm2.239-.758c.824-.093 1.214-.425 1.215-1.03a.883.883 0 00-.287-.686c-.167-.15-.499-.275-.845-.317-.103-.013-.46-.023-.795-.023h-.607v2.078h.566c.311 0 .65-.01.753-.022zm-.27-2.806c.667-.082 1.03-.424 1.028-.97a1.11 1.11 0 00-.113-.473 1.04 1.04 0 00-.36-.33c-.255-.129-.584-.177-1.205-.178h-.4V8.06h.432c.237 0 .515-.01.618-.023zM34.124 11.6c-.008-.008-.014-1.41-.014-3.117V5.38h.795c.828 0 1.138.018 1.522.084 1.195.205 2.009.84 2.337 1.824.195.583.235 1.378.103 2.03-.175.858-.64 1.486-1.384 1.865-.468.239-.954.36-1.628.41-.313.023-1.71.029-1.731.007zm2.134-.794c.728-.13 1.227-.44 1.538-.956.443-.736.424-2.077-.04-2.776-.3-.452-.775-.744-1.412-.87a5.093 5.093 0 00-1-.076h-.403v4.743l.535-.01c.417-.008.59-.02.782-.055zm8.304-1.332v-2.14h.769v.462l.109-.093a1.93 1.93 0 01.818-.423c.221-.052.67-.032.89.04.537.175.887.597 1.035 1.25.04.176.043.267.051 1.615l.008 1.429h-.79l-.008-1.408c-.009-1.55-.008-1.542-.142-1.827-.155-.33-.483-.49-.931-.456-.547.04-.837.276-.984.799-.043.155-.045.2-.052 1.526l-.007 1.366h-.766zm-34.41 1.403l-.717-.213-.005-1.737-.005-1.737.078-.021.74-.198c.363-.098.664-.178.67-.178.004 0 .008.968.008 2.15 0 1.709-.005 2.15-.026 2.149a29.829 29.829 0 01-.743-.215z" fill="#000"/>
</svg>
