<svg xmlns="http://www.w3.org/2000/svg" viewBox="0 0 61.529 17.58" version="1.1">
  <g fill="#000" fill-opacity="1">
    <path d="M11.152.906A7.883 7.883 0 003.27 8.784h-.001v6.102h.001a1.79 1.79 0 001.791 1.788h6.096a7.883 7.883 0 007.88-7.883A7.884 7.884 0 0011.152.906zM12.75 4.15c1.324 0 2.574 1.015 2.574 2.413 0 .13 0 .26-.022.407a.657.657 0 11-1.298-.185c.006-.042.008-.109.008-.222 0-.793-.648-1.099-1.262-1.099-.613 0-1.166.516-1.167 1.099.01.675 0 1.345 0 2.018l1.137-.009c.888-.018.898 1.32.01 1.314l-1.147.009c-.003.542.004.444.001.717 0 0 .01.663-.01 1.166-.137 1.478-1.395 2.66-2.907 2.66a2.931 2.931 0 01-2.923-2.917C5.792 9.87 7.11 8.571 8.77 8.586l.924-.007v1.312L8.77 9.9h-.007c-.912.027-1.692.645-1.707 1.621 0 .89.72 1.603 1.611 1.603s1.603-.649 1.603-1.601c.01-1.58-.007-3.325-.001-4.965 0-.092.005-.166.015-.267.15-1.215 1.237-2.14 2.466-2.14z" fill-rule="nonzero"/>
    <g stroke-width=".294">
      <path d="M27.896 7.37c-1.258.486-2.111 1.68-2.115 3.153-.004 1.544 1.078 3.536 3.319 3.55 1.506.01 2.26-.553 2.667-.935a.639.639 0 10-.877-.93c-.304.285-.751.708-2.02.567-.544-.06-1.128-.502-1.323-.84l4.155-1.767a.638.638 0 00.329-.83c-.742-1.46-2.057-2.772-4.135-1.968zm2.608 1.92l-3.458 1.477c-.247-.922.765-2.006 1.317-2.207.828-.303 1.74.038 2.14.73z" fill-rule="evenodd"/>
      <path d="M43.995 7.075a3.513 3.484 0 00-3.513 3.485 3.513 3.484 0 003.513 3.484 3.513 3.484 0 003.512-3.484 3.513 3.484 0 00-3.512-3.485zm0 1.305a2.197 2.18 0 012.197 2.18 2.197 2.18 0 01-2.197 2.18 2.197 2.18 0 01-2.198-2.18 2.197 2.18 0 012.198-2.18z"/>
      <path style="line-height:normal;font-variant-ligatures:normal;font-variant-position:normal;font-variant-caps:normal;font-variant-numeric:normal;font-variant-alternates:normal;font-feature-settings:normal;text-indent:0;text-align:start;text-decoration-line:none;text-decoration-style:solid;text-decoration-color:#000;text-transform:none;text-orientation:mixed;white-space:normal;shape-padding:0;isolation:auto;mix-blend-mode:normal;solid-color:#000;solid-opacity:1" d="M49.073 7.12c-.559 0-.652.46-.649.646v5.593a.647.647 0 00.659.662.647.647 0 00.659-.662s.01-2.08 0-3.412c-.01-1.331 1.073-1.62 1.45-1.62.28 0 .504.156.726.148.33-.012.6-.233.6-.62-.01-.626-.778-.715-1.344-.703a2.91 2.91 0 00-1.457.432s-.086-.464-.644-.464z" color="#000" font-style="normal" font-variant="normal" font-weight="400" font-stretch="normal" font-size="medium" font-family="sans-serif" text-decoration="none" letter-spacing="normal" word-spacing="normal" writing-mode="lr-tb" direction="ltr" dominant-baseline="auto" baseline-shift="baseline" text-anchor="start" clip-rule="nonzero" display="inline" overflow="visible" visibility="visible" color-interpolation="sRGB" color-interpolation-filters="linearRGB" vector-effect="none" fill-rule="nonzero" color-rendering="auto" image-rendering="auto" shape-rendering="auto" text-rendering="auto"/>
      <path style="line-height:normal;font-variant-ligatures:normal;font-variant-position:normal;font-variant-caps:normal;font-variant-numeric:normal;font-variant-alternates:normal;font-feature-settings:normal;text-indent:0;text-align:start;text-decoration-line:none;text-decoration-style:solid;text-decoration-color:#000;text-transform:none;text-orientation:mixed;white-space:normal;shape-padding:0;isolation:auto;mix-blend-mode:normal;solid-color:#000;solid-opacity:1" d="M55.468 7.106c-.877 0-1.509.26-1.97.59-.699.5.053 1.546.752 1.046.318-.228.555-.349 1.218-.349.826.017 1.49.327 1.49.945-.442.28-2.368.512-3.402 1.1-1.034.588-.979 1.33-.979 1.811 0 1.057 1.113 1.77 2.078 1.77.964 0 1.374-.203 2.317-.85v.186c-.03.887 1.32.887 1.289 0V9.563c.004-1.573-1.125-2.433-2.793-2.457zm1.535 3.499c0 .417.006.537-.005.954-.003.5-.317.733-.646.924-.33.192-.999.36-1.386.378-.447.015-1.04-.086-1.071-.616 0-.32.155-.519.41-.74.602-.452 1.419-.604 2.698-.9z" color="#000" font-style="normal" font-variant="normal" font-weight="400" font-stretch="normal" font-size="medium" font-family="sans-serif" text-decoration="none" letter-spacing="normal" word-spacing="normal" writing-mode="lr-tb" direction="ltr" dominant-baseline="auto" baseline-shift="baseline" text-anchor="start" clip-rule="nonzero" display="inline" overflow="visible" visibility="visible" opacity="1" color-interpolation="sRGB" color-interpolation-filters="linearRGB" vector-effect="none" fill="#000" fill-opacity="1" fill-rule="nonzero" color-rendering="auto" image-rendering="auto" shape-rendering="auto" text-rendering="auto"/>
      <path style="line-height:25px;-inkscape-font-specification:Comfortaa" d="M39.03 4.21c-.403-.023-.7.375-.638.754V7.89c-1.272-1.067-3.343-.993-4.517.188-1.188 1.058-1.413 2.977-.55 4.298.635.998 1.795 1.709 2.99 1.652.753-.006 1.499-.33 2.077-.81-.06.379.233.779.638.754.397.018.705-.374.644-.753-.007-2.814.007-5.628-.007-8.441-.021-.317-.324-.578-.641-.567zm-2.79 4.204c1.148-.03 2.174 1.004 2.152 2.142.024 1.138-1.005 2.17-2.152 2.141-1.091.03-2.091-.895-2.147-1.978-.116-1.117.8-2.205 1.924-2.294.074-.007.148-.01.223-.01z" font-style="normal" font-variant="normal" font-weight="700" font-stretch="normal" font-size="medium" font-family="Comfortaa" letter-spacing="0" word-spacing="0"/>
      <path style="line-height:25px;-inkscape-font-specification:Comfortaa" d="M22.194 6.539v6.87c-.002.847 1.287.847 1.285 0V8.824h1.323a.56.56 0 00.573-.583.566.566 0 00-.573-.578h-1.323V6.607c0-.677.53-1.239 1.594-1.226.37.005.502.094.637.177.739.489 1.45-.644.676-1.077-.474-.29-.917-.393-1.446-.393-1.667 0-2.737 1.266-2.746 2.45z" font-style="normal" font-variant="normal" font-weight="700" font-stretch="normal" font-size="medium" font-family="Comfortaa" letter-spacing="0" word-spacing="0" fill="#000" fill-opacity="1"/>
    </g>
  </g>
</svg>
