<svg xmlns="http://www.w3.org/2000/svg" viewBox="0 0 61.529 17.58" version="1.1">
  <path d="M24.844 17.285c.521-.475.908-1.25 1.052-2.108.05-.302.053-.577.053-4.36 0-3.824-.003-4.043-.052-4.143a1.332 1.332 0 00-.357-.399l-.117-.093h1.243c1.178 0 1.24.003 1.17.05a2.57 2.57 0 00-.214.18c-.263.244-.237-.21-.254 4.434l-.015 4.126-.08.292c-.228.83-.727 1.43-1.524 1.834-.253.127-.75.3-.955.332l-.132.02zm-3.956-2.94c-.689-.147-1.195-.415-1.608-.855a1.786 1.786 0 01-.366-.533c-.261-.542-.248-.365-.264-3.471-.014-2.57-.018-2.742-.068-2.843a1.36 1.36 0 00-.357-.398l-.087-.063 1.257-.001h1.258l-.147.098c-.082.055-.192.15-.245.21-.204.233-.191.059-.201 2.778-.006 1.598.002 2.552.022 2.727.085.743.493 1.293 1.093 1.476.159.048.255.058.472.049.243-.01.297-.024.492-.12.387-.191.68-.574.819-1.065.063-.227.064-.255.073-2.828.011-2.959.022-2.802-.22-3.054a2.193 2.193 0 00-.226-.207l-.088-.063h1.24l1.241-.001-.114.082a1.358 1.358 0 00-.355.393c-.048.088-.053.289-.067 2.875-.018 3.143 0 2.908-.263 3.453-.234.488-.6.834-1.172 1.11-.443.213-.766.284-1.359.296-.406.01-.545 0-.76-.045zm16.955.01a17.03 17.03 0 01-.526-.094l-.249-.05-.225-.731a20.288 20.288 0 01-.226-.768c-.002-.02.106.05.239.154a3.55 3.55 0 001.177.587c.255.065.338.073.644.063.3-.01.392-.026.627-.106.503-.17.84-.436 1.008-.791a.755.755 0 00.089-.412c0-.275-.07-.437-.279-.659-.215-.227-.444-.369-1.245-.77-.844-.422-1.238-.677-1.535-.994-.368-.394-.524-.729-.586-1.257a2.175 2.175 0 01.273-1.348c.124-.21.518-.604.733-.73.482-.285 1.035-.415 1.769-.415.445 0 .684.024 1.201.122l.33.063v1.237l-.163-.158c-.294-.285-.704-.427-1.227-.426-.543 0-.937.143-1.216.439a1.08 1.08 0 00-.311.677c-.029.342.067.631.29.873.187.202.485.384 1.255.764.392.194.838.434.991.534.736.483 1.111 1.114 1.111 1.872 0 .348-.063.613-.222.936-.248.503-.755.937-1.372 1.175-.472.182-.783.235-1.463.247-.452.008-.687-.002-.892-.034zm7.036.014c-.538-.057-1.148-.28-1.549-.566a2.444 2.444 0 01-.9-1.295c-.064-.225-.065-.26-.08-2.993-.012-2.065-.025-2.785-.051-2.844-.047-.104-.23-.305-.371-.408l-.115-.083h2.506l-.157.11c-.188.131-.337.318-.38.476-.02.078-.028.958-.022 2.756l.009 2.641.068.205c.105.313.228.521.423.716.324.324.778.483 1.188.415.58-.096 1.006-.528 1.173-1.187.057-.223.059-.325.059-2.876 0-2.937.012-2.754-.2-2.975a2.091 2.091 0 00-.222-.197l-.114-.084h2.423l-.103.08a1.41 1.41 0 00-.344.369c-.047.085-.052.313-.067 2.872-.018 3.036-.009 2.89-.191 3.348-.336.847-1.174 1.41-2.269 1.522a2.484 2.484 0 01-.714-.002zm-31.74-.2c.135-.1.261-.27.319-.432.032-.09.04-.719.04-3.467.003-3.726.014-3.49-.193-3.774a1.256 1.256 0 00-.222-.227l-.121-.09h4.956l-.002.681c-.002.643-.004.676-.05.607a1.356 1.356 0 00-.403-.367c-.109-.054-.193-.058-1.367-.065l-1.25-.008v2.371h2.486v1.238l-.066-.099a.627.627 0 00-.404-.259c-.087-.018-.525-.031-1.082-.031h-.935l.002 1.69c.002 1.215.012 1.715.037 1.782.054.147.21.35.345.447l.122.09H13.02l.118-.088zm15.382-.091c.344-.321.31.09.31-3.863 0-3.267-.003-3.441-.054-3.553-.051-.11-.254-.321-.414-.43-.069-.047-.007-.05 1.183-.05l1.255-.003-.16.115a1.366 1.366 0 00-.24.22c-.173.226-.165.048-.165 3.685 0 2.094.01 3.377.029 3.442.046.165.188.365.352.494l.15.12h-2.435zm4.315.015c.099-.091.209-.229.25-.313l.076-.15V7.024l-.739.01c-.9.01-.885.005-1.32.438-.159.159-.282.271-.275.25.008-.02.118-.375.245-.79l.23-.752h5.568l-.187.577c-.103.318-.208.65-.235.738l-.047.16-.065-.145a.799.799 0 00-.348-.403c-.112-.06-.166-.065-.772-.074l-.65-.009v6.573l.07.15c.04.088.147.226.253.33l.183.178H32.66l.175-.162zm-6.745-8.467c-1.154-.313-1.69-1.55-1.13-2.613.432-.823 1.528-1.166 2.4-.75.214.101.491.359.926.86.125.144.303.326.394.403.653.553 1.548.512 2.123-.099a1.48 1.48 0 00.383-1.395c-.188-.797-.994-1.328-1.77-1.166-.59.124-1.026.517-1.363 1.23l-.127.266-.002-.677-.002-.677.261-.249c.471-.448 1.04-.665 1.64-.626.439.029.722.122 1.088.357.361.233.61.525.815.957.294.62.27 1.413-.064 2.012-.219.393-.56.72-.962.922-.796.401-1.825.266-2.483-.326a6.366 6.366 0 01-.44-.477c-.562-.668-.77-.804-1.23-.804-.325 0-.526.077-.756.29-.286.265-.428.66-.36 1.001.158.785.939 1.159 1.69.809.181-.085.487-.359.668-.6l.133-.177v.992l-.14.13a1.76 1.76 0 01-.617.37c-.274.1-.778.118-1.076.037z" fill="#000"/>
</svg>
