<svg xmlns="http://www.w3.org/2000/svg" viewBox="0 0 61.529 17.58" version="1.1" xml:space="preserve">
  <path d="M10.579 14.034c-.017-.017-.03-1.806-.03-3.978V6.108h2.638l-.012 3.967-.011 3.966-1.278.012c-.702.006-1.29-.002-1.307-.019zm4.584-3.948V6.108h2.92c1.837 0 3.046.018 3.262.048.961.132 1.668.574 2.013 1.26.254.505.258.563.275 3.736l.016 2.912-1.288-.012-1.287-.012-.024-2.549c-.018-1.85-.039-2.593-.079-2.712a.78.78 0 00-.481-.472c-.095-.026-.702-.045-1.448-.045h-1.286v5.8h-2.593zm13.25 3.931c-1.339-.098-2.247-.584-2.661-1.424-.234-.477-.31-.965-.337-2.185-.043-1.94.126-2.736.71-3.35a2.566 2.566 0 011.035-.668c.632-.222.866-.245 2.714-.269L31.6 6.1V3.516h2.593v10.547l-2.67-.006c-1.468-.003-2.867-.021-3.11-.039zm3.186-3.934V8.257l-1.483.014c-1.42.012-1.49.017-1.66.107-.38.204-.483.647-.449 1.927.025.922.074 1.15.293 1.36.228.218.386.238 1.904.241l1.395.002zm4.337 3.951c-.047-.046-.035-4.387.013-5.179.028-.458.075-.818.135-1.032.258-.93.953-1.48 2.085-1.653.253-.04.778-.061 1.462-.061h1.066l-.012 1.065-.011 1.066-.791.022c-.74.02-.803.028-.962.128a.71.71 0 00-.264.307c-.09.197-.093.269-.115 2.773l-.022 2.57-1.277.012c-.703.006-1.291-.002-1.308-.018zm9.242-.018c-1.065-.078-1.84-.395-2.37-.971-.437-.474-.658-1.467-.66-2.96-.003-1.153.12-1.966.377-2.513.227-.484.834-.987 1.452-1.204.616-.217.766-.227 3.981-.246l3.022-.019-.011 3.969-.011 3.969-2.66.004c-1.462.002-2.866-.011-3.12-.03zm3.164-3.93V8.262h-1.376c-1.748 0-1.878.031-2.076.504-.101.244-.157 1.192-.11 1.897.055.825.157 1.023.608 1.184.123.044.511.059 1.56.06l1.395.002z" fill="#000"/>
</svg>
