<svg xmlns="http://www.w3.org/2000/svg" viewBox="0 0 61.529 17.58" version="1.1">
  <path d="M0 8.79V0h61.529v17.58H0zm25.008 4.895c.863-.418 1.423-1.011 1.841-1.952.427-.961.311-2.787-.236-3.72-.732-1.25-1.915-1.86-3.61-1.86-1.704 0-2.879.629-3.598 1.927-.39.705-.434.914-.434 2.105 0 1.13.055 1.427.375 2.05.924 1.797 3.554 2.47 5.662 1.45zm-2.736-1.412c-.677-.358-1.03-1.084-1.03-2.12 0-1.547.552-2.242 1.78-2.242.945 0 1.511.48 1.722 1.463.23 1.076-.03 2.089-.692 2.688-.382.346-1.315.456-1.78.21zm32.017 1.659c.33-.15.807-.494 1.062-.766.406-.433.463-.457.464-.192 0 .43.744 1.087 1.332 1.18.275.042.763-.01 1.085-.117.554-.184.586-.227.586-.78 0-.525-.04-.59-.39-.63l-.39-.045-.05-2.3c-.06-2.63-.175-2.99-1.177-3.654-.562-.371-.72-.402-2.084-.402-1.043 0-1.718.08-2.305.273l-.83.272-.156.89c-.086.49-.142.904-.123.922.019.018.412.079.874.136.826.102.842.097.998-.313.209-.549.374-.637 1.202-.64.915-.002 1.282.344 1.282 1.214v.63l-1.214.008c-2.016.012-3.182.579-3.482 1.69-.525 1.951 1.416 3.487 3.316 2.624zm-.818-1.626c-.16-.161-.293-.458-.293-.66 0-.661.47-.952 1.538-.952.863 0 .953.029.953.3 0 .534-.445 1.182-.958 1.397-.666.278-.892.262-1.24-.085zm-45.12.879v-.88H6.884l.001-1.428c.001-2.304.332-2.99 1.458-3.019.43-.011.679.074.92.315.315.314.335.47.405 3.074l.073 2.743 1.575.042 1.575.042v-1.768h-1.026l.004-1.355c.006-2.358.336-3.064 1.446-3.093.44-.011.686.072.93.315.314.314.335.47.404 3.074l.073 2.743h3.223l.044-.842.044-.842h-1.04l-.004-1.795c-.002-.987-.063-2.053-.137-2.37-.267-1.152-1.081-1.858-2.254-1.956-1.048-.087-1.724.154-2.337.834l-.503.556-.404-.506c-.504-.631-1.166-.916-2.128-.916-.852 0-1.536.291-2.011.855l-.33.39V6.3H3.661v1.612h1.026v4.395H3.662v.781c0 .43.044.825.098.88.054.053 1.109.097 2.344.097H8.35zm27.007.622c.172-.609.41-2.407.329-2.488-.049-.048-.447-.118-.884-.154l-.795-.066-.163.603-.162.604h-1.166c-.642 0-1.167-.038-1.167-.084 0-.046.923-1.127 2.051-2.402 1.128-1.274 2.05-2.44 2.05-2.59a2.913 2.913 0 00-.091-.601l-.088-.33h-3.344c-1.84 0-3.374.05-3.411.11-.038.06-.09.67-.119 1.355l-.05 1.246.759.076.76.076.174-.625.175-.626h1.171c1.091 0 1.158.017.97.254-.11.14-1.041 1.221-2.069 2.402-1.916 2.204-2.086 2.522-1.716 3.213.143.268.339.284 3.433.284 3 0 3.287-.022 3.353-.257zm4.343-1.214V11.12l-1.136.043-1.135.043-.043 1.233c-.024.678-.01 1.32.032 1.428.053.14.394.196 1.178.196H39.7zm3.592 1.319c.125-.202 3.293-11.296 3.293-11.531 0-.13-.31-.184-1.062-.184h-1.062L42.88 7.801c-.87 3.082-1.62 5.752-1.665 5.933-.08.319-.049.33.95.33.569 0 1.076-.069 1.128-.152zm6.092-5.488c.868-3.062 1.616-5.716 1.663-5.897.082-.32.053-.33-1.01-.33h-1.096l-.159.55c-1.92 6.666-3.163 11.18-3.098 11.246.045.045.541.063 1.102.04l1.02-.043zm-9.684-.733V6.3h-2.344v2.784H39.7z" fill="#000"/>
</svg>
