<svg xmlns="http://www.w3.org/2000/svg" viewBox="0 0 61.529 17.58" version="1.1" xml:space="preserve">
  <path d="M9.79 8.79V1.654h14.272v14.272H9.789zm6.943 5.52c0-.039.109-.918.24-1.952.133-1.034.241-1.932.242-1.995 0-.078-.188-.105-.603-.087-.704.03-.65-.245-.412 2.13.187 1.866.209 1.977.39 1.977.079 0 .143-.033.143-.072zm.916-4.604v-.29l-1.037-.027-1.036-.027v.688l1.036-.027 1.037-.028zm-1.595-.603c-.002-.04-.168-.186-.368-.324-.69-.476-.89-1.464-.486-2.402.196-.457.197-.483.035-.91-.166-.433-.335-.579-.335-.288 0 .083-.203.548-.452 1.033-.346.675-.453.987-.453 1.327 0 .78.501 1.32 1.436 1.547.4.097.627.103.623.017zm2.269-.162c.814-.34 1.344-1.171 1.483-2.324.04-.343.062-.624.046-.624s-.213.2-.437.443c-.225.243-.61.545-.857.67a4.85 4.85 0 00-.765.493c-.323.272-.768 1.093-.77 1.42 0 .163.05.175.497.115a3.92 3.92 0 00.803-.193zm-1.978-.3c-.147-.448-.084-1.137.15-1.628.098-.208.415-.614.702-.901l.523-.523-.103-.512a5.69 5.69 0 00-.255-.878l-.153-.365-.189.38c-.104.21-.456.706-.783 1.104-1.286 1.567-1.363 2.457-.29 3.374.242.208.458.361.479.34.02-.02-.016-.196-.08-.392zm.571-.149c.185-.578.636-1.087 1.314-1.484.384-.225.679-.47.732-.61.1-.265.032-.759-.18-1.298l-.143-.363-.262.41c-.144.227-.53.67-.858.986-.888.857-1.125 1.516-.918 2.554.07.352.158.299.315-.195zm30.495 4.338c-1.021-.174-1.748-.64-2.198-1.408-.445-.758-.51-1.295-.512-4.151L44.7 4.643h1.735v2.49c0 3.227.102 3.605 1.084 4.015.987.413 2.11-.095 2.382-1.078.059-.211.102-1.427.102-2.895V4.643h1.736v2.58c-.002 2.881-.087 3.502-.585 4.278-.663 1.033-2.227 1.588-3.742 1.33zM27.823 8.693v-4.05l.795.003.796.003 1.495 1.976a240.627 240.627 0 011.88 2.51l.386.535.026-2.515.025-2.514h1.733v8.1h-1.497l-.528-.698a682.3 682.3 0 00-1.928-2.53l-1.4-1.829-.025 2.53-.026 2.528h-1.732zm11.186 2.455V9.553l-1.413-2.238a720.493 720.493 0 00-1.554-2.455l-.14-.217h2.035l.982 1.65c.71 1.192 1.006 1.613 1.07 1.519.047-.072.5-.815 1.006-1.65l.919-1.519h.959c.527 0 .958.023.958.05 0 .028-.694 1.142-1.543 2.475l-1.543 2.425v3.151H39.01z" fill="#000"/>
</svg>
