<svg xmlns="http://www.w3.org/2000/svg" viewBox="0 0 61.529 17.58" version="1.1" xml:space="preserve">
  <g fill="#000">
    <path d="M31.364 3.906c-.539-.018-1.095.096-1.508.32-.377.206-.787.67-.937 1.062-.14.365-.17 1.012-.064 1.381.234.819.986 1.412 1.937 1.531.185.023.398.034.475.026.077-.009.284-.03.461-.047a2.814 2.814 0 001.129-.39l.25-.147-.197-.297-.198-.298-.292.157c-.855.463-1.799.426-2.378-.095-.326-.293-.462-.603-.463-1.054-.001-.598.311-1.07.872-1.32.557-.246 1.528-.136 2.046.233.095.067.18.114.188.102.008-.01.099-.143.2-.293.18-.265.182-.276.08-.356-.186-.142-.766-.387-1.073-.452a3.052 3.052 0 00-.528-.063zm-5.636.009c-.75-.015-1.406.238-1.856.72-1.077 1.15-.583 2.962.944 3.46.268.088.463.106.951.095.557-.014.65-.032.99-.192.79-.373 1.207-.96 1.258-1.775.08-1.279-.787-2.212-2.136-2.301a3.257 3.257 0 00-.151-.007zm-5.435.014c-.594.02-1.13.18-1.413.44-.17.156-.34.521-.341.734 0 .09.049.267.11.394.21.434.616.626 1.774.835.944.172 1.177.248 1.32.44.166.223.075.42-.275.596-.248.124-.346.138-.893.136-.66-.002-1.055-.089-1.552-.34-.15-.077-.278-.13-.283-.122-.08.15-.258.564-.258.6 0 .077.81.397 1.222.483.496.103 1.556.068 1.932-.064.665-.234.947-.565.948-1.116.002-.728-.432-1.035-1.857-1.312-1.027-.2-1.23-.265-1.334-.423-.111-.169-.05-.334.168-.453.14-.077.316-.097.847-.097.635 0 .978.062 1.553.283.097.037.353-.521.274-.6-.11-.11-.846-.322-1.337-.385a3.796 3.796 0 00-.605-.029zm27.22.11c-.568-.006-1.39.004-1.828.02l-.796.03v4.004h3.797v-.67h-3.127v-1.06h2.289v-.67h-2.293l.016-.49.016-.488 1.496-.015 1.496-.014-.016-.318-.017-.318-1.033-.011zm-8.932.002a53.063 53.063 0 00-1.885.02l-.907.029v4.003h3.908v-.67H36.57V6.364l1.159-.015 1.159-.014.016-.32.017-.32-1.162-.015-1.16-.016v-.949l1.496-.015 1.496-.014-.017-.317-.017-.318-.976-.01zm5.61.005l-2.01.006-2.01.006-.016.315-.017.314h1.625v3.407h.782l.011-.266c.007-.145.013-.905.014-1.688l.002-1.424.826-.016.827-.014-.017-.32-.017-.32zm-10.105.013c-.046 0-.109.004-.14.007-.035.005-.055.72-.055 2.017v2.01h.781v-4.02l-.25-.007a17.84 17.84 0 00-.336-.007zm-8.437.53c.417-.005.83.13 1.13.395.346.305.466.579.467 1.075.002.669-.35 1.19-.941 1.39-.348.12-.975.106-1.315-.027-1.188-.464-1.233-2.121-.073-2.667.23-.108.482-.162.732-.166zM5.641 8.78v4.896h9.882V8.78h-1.721l-.001.033-.02.284h-3.168c-1.742 0-3.184-.017-3.204-.038-.02-.019-.034-.143-.036-.28H5.641zm15.158.626c-.55 0-.728.022-.992.122-1.337.501-1.848 2.026-1.066 3.181.287.424.734.728 1.304.887.627.174 1.664.05 2.37-.284l.31-.147v-1.672l-.377.017-.377.016-.016.6c-.015.594-.017.6-.172.68-.242.125-.88.218-1.224.177-.84-.099-1.338-.59-1.394-1.375-.059-.818.49-1.425 1.383-1.533.404-.048 1.042.087 1.422.301l.293.165.2-.286.2-.288-.234-.155c-.45-.299-.887-.407-1.63-.406zm17.447.076v4.082h.781v-1.507h1.2l.575.754.575.753h.444c.245 0 .444-.013.444-.028 0-.015-.264-.355-.587-.755-.355-.44-.56-.736-.517-.75.04-.011.168-.051.286-.088.46-.142.815-.625.817-1.114.002-.541-.232-.945-.691-1.19-.217-.116-.308-.124-1.778-.14l-1.55-.017zm-6.549.005l.03 1.543.028 1.543-.174-.203-1.32-1.54-1.144-1.335-.405-.004-.404-.003v2.001c0 1.096.017 2.009.037 2.036.02.02.171.037.335.037h.298v-1.54c0-.915.02-1.532.051-1.52.029.01.645.702 1.37 1.54l1.319 1.52h.777V9.487h-.798zm-7.967.001v4.076h3.909v-.67h-3.127v-1.116h2.289v-.671h-2.289v-.948h2.96l.007-.182.02-.335.01-.154h-3.78zm9.881 0v4.076h3.798v-.67h-3.126v-1.116h2.287v-.671h-2.288v-.947l1.493-.015 1.494-.014.016-.322.017-.32h-3.691zm10.967 0l-.975 1.99a252.997 252.997 0 00-.994 2.04c-.011.03.156.044.39.035l.41-.017.228-.446.228-.447 1.113-.015 1.113-.015.236.476.237.475h.395c.218 0 .388-.023.378-.05-.01-.029-.457-.945-.992-2.038l-.972-1.987h-.795zm3.438 0v4.079l1.688-.015 1.69-.015.016-.32.017-.322h-2.741V9.49h-.67zm3.964 0v4.077h3.908v-.671H52.76v-1.116h2.29v-.67h-2.289v-.949h2.96v-.67H51.98zm-12.953.67h1.03c1.12 0 1.27.032 1.403.288.18.348.056.719-.289.863-.135.056-.454.078-1.165.078h-.979v-1.228zm5.959.087l.21.445c.44.939.53 1.143.53 1.198 0 .036-.277.057-.753.057-.415 0-.754-.02-.754-.047 0-.026.173-.41.383-.85l.384-.803z"/>
    <path d="M5.641 8.777V3.882h9.882v4.895h-1.721l-.001-.034-.02-.283h-3.168c-1.742 0-3.183.016-3.204.037-.02.02-.034.143-.036.28z" opacity=".505"/>
  </g>
</svg>
